<svg width="157" height="26" viewBox="0 0 157 26" fill="none" xmlns="http://www.w3.org/2000/svg">
<path d="M0.644519 25.2837C0.21489 23.5437 7.46616e-05 21.6748 7.46616e-05 19.7845C7.46616e-05 11.2348 4.98378 3.90965 13.469 2.25719e-05L13.5764 0.279282C5.13415 4.21039 0.300815 11.3208 0.300815 19.7845C0.300815 21.6748 0.451186 22.9208 0.923778 25.2408L0.644519 25.2837ZM6.41935 23.9734C5.40972 23.9734 4.70083 23.2215 4.70083 22.1474C4.70083 20.8585 5.71046 19.3548 7.30009 18.2593C6.95638 17.9585 6.74157 17.5074 6.74157 16.9059C6.74157 13.92 11.0593 7.69039 14.0453 7.69039C14.969 7.69039 15.5705 8.35632 15.5705 9.38743C15.5705 9.92447 15.463 10.44 15.1623 11.2348L16.8379 7.99113H17.0956V8.09854L13.4868 14.9726C12.8853 16.1326 12.3482 17.1422 11.8756 18.023C13.7016 17.6578 15.4845 16.3045 18.5779 12.1585L18.7712 12.2874C15.6134 16.6267 13.766 18.0015 11.7038 18.3022C9.0186 23.2 8.07342 23.9734 6.41935 23.9734ZM8.28823 18.3237C11.0164 18.3237 15.2912 12.3304 15.2912 9.38743C15.2912 8.50669 14.8186 7.96965 14.0453 7.96965C11.3171 7.96965 7.04231 13.963 7.04231 16.9059C7.04231 17.7867 7.5149 18.3237 8.28823 18.3237ZM6.41935 23.6941C8.24527 23.6941 9.14749 22.6845 13.4653 14.4785H13.4008C11.8756 16.8845 9.8349 18.603 8.28823 18.603C7.98749 18.603 7.72972 18.5385 7.5149 18.4097C5.88231 19.6126 5.00157 20.923 5.00157 22.1689C5.00157 23.0711 5.58157 23.6941 6.41935 23.6941ZM16.5348 18.3022V18.1948L21.0888 9.32299H21.0244L18.017 13.2971L17.8237 13.1467L21.7118 7.99113H22.0126V8.09854L17.4585 16.9704H17.5229C22.614 9.81706 24.2251 8.65706 26.0081 7.99113H26.4377V8.09854C24.8911 9.58076 24.0533 11.2348 24.0533 12.5237C24.0533 13.4904 24.44 14.0704 25.0844 14.0704C25.6429 14.0704 26.2229 13.7052 26.717 13.0608L27.1037 12.5452L27.297 12.6956L26.9318 13.1897C26.3733 13.9415 25.7288 14.3497 25.0844 14.3497C24.2681 14.3497 23.7526 13.6408 23.7526 12.5237C23.7526 11.2778 24.5259 9.66669 25.9437 8.24891C23.7311 9.17262 21.8192 11.3852 16.8785 18.3022H16.5348ZM27.0636 18.603C26.1399 18.603 25.5169 17.9371 25.5169 16.9059C25.5169 13.92 29.8347 7.69039 32.8206 7.69039C33.7443 7.69039 34.3458 8.35632 34.3458 9.38743C34.3458 9.92447 34.2384 10.44 33.9376 11.2348L35.6132 7.99113H35.871V8.09854L32.6487 14.1993C31.9399 15.5097 31.5747 16.6267 31.5747 17.4C31.5747 17.9585 31.8969 18.3237 32.391 18.3237C33.4221 18.3237 35.1836 16.5837 37.9547 12.8889L38.3413 12.3734L38.5347 12.5237L38.1695 13.0178C35.3339 16.863 33.5295 18.603 32.391 18.603C31.7036 18.603 31.2739 18.1304 31.2739 17.4C31.2739 16.6911 31.6176 15.6815 32.2621 14.4785H32.1976C30.6724 16.863 28.6102 18.603 27.0636 18.603ZM27.0636 18.3237C29.7917 18.3237 34.0665 12.3304 34.0665 9.38743C34.0665 8.50669 33.5939 7.96965 32.8206 7.96965C30.0924 7.96965 25.8176 13.963 25.8176 16.9059C25.8176 17.7867 26.2902 18.3237 27.0636 18.3237ZM33.4994 23.6726V23.5652L41.018 9.32299H40.9535L37.9461 13.2971L37.7528 13.1467L41.6409 7.99113H41.9417V8.09854L39.9439 11.8148H40.0083C41.5335 9.40891 43.5743 7.69039 45.1209 7.69039C46.0446 7.69039 46.6676 8.35632 46.6676 9.38743C46.6676 11.9867 43.3809 17.1422 40.5024 18.3022C43.5957 17.7437 46.5817 15.7674 48.7298 12.8889L49.1165 12.3734L49.3098 12.5237L48.9446 13.0178C46.3454 16.5408 42.6291 18.603 39.3639 18.603C38.4402 18.603 37.8387 17.9371 37.8387 16.9059C37.8387 16.3689 37.9461 15.8534 38.2468 15.0585L33.7572 23.6726H33.4994ZM39.3639 18.3237C42.092 18.3237 46.3668 12.3304 46.3668 9.38743C46.3668 8.50669 45.8943 7.96965 45.1209 7.96965C42.3928 7.96965 38.118 13.963 38.118 16.9059C38.118 17.7867 38.5906 18.3237 39.3639 18.3237ZM55.1303 18.603C54.4644 18.603 54.0777 18.1948 54.0777 17.4859C54.0777 16.7341 54.6362 15.4452 56.0325 13.0178C57.4718 10.5045 57.9658 9.51632 57.9658 8.91484C57.9658 8.31336 57.6221 7.96965 57.0421 7.96965C55.4525 7.96965 53.2829 10.44 47.6547 18.3022H47.311V18.1948L53.5192 6.44447C51.7792 9.08669 49.9747 11.6645 48.7288 13.2971L48.5355 13.1467C50.5118 10.5045 53.0895 6.80965 53.8199 5.52076L55.7318 2.19113H55.9895V2.29854L48.2347 16.9704H48.2992C53.3903 9.81706 55.3666 7.69039 57.0421 7.69039C57.794 7.69039 58.2666 8.16299 58.2666 8.91484C58.2666 9.62373 57.6866 10.6763 56.2903 13.1467C54.8725 15.66 54.3784 16.82 54.3784 17.4859C54.3784 18.023 54.6577 18.3237 55.1303 18.3237C56.011 18.3237 57.4073 17.1208 60.5651 12.8889L60.9518 12.3734L61.1451 12.5237L60.7799 13.0178C57.6866 17.2067 56.1614 18.603 55.1303 18.603ZM66.1886 4.68299C65.9952 4.68299 65.8878 4.57558 65.8878 4.40373C65.8878 4.0815 66.1671 3.75928 66.4248 3.75928C66.6182 3.75928 66.7256 3.86669 66.7256 4.03854C66.7256 4.36076 66.4463 4.68299 66.1886 4.68299ZM61.2693 18.603C60.5819 18.603 60.1523 18.1734 60.1523 17.4859C60.1523 16.7771 60.4315 15.4452 63.6323 9.32299H63.5678L60.5604 13.2971L60.3671 13.1467L64.2552 7.99113H64.556V8.09854C60.6034 15.6385 60.453 16.863 60.453 17.4859C60.453 18.0015 60.7752 18.3237 61.2693 18.3237C62.3004 18.3237 64.0619 16.5837 66.833 12.8889L67.2197 12.3734L67.413 12.5237L67.0478 13.0178C64.2123 16.863 62.4078 18.603 61.2693 18.603ZM67.2839 18.603C66.1669 18.603 65.501 17.9371 65.501 16.9059C65.501 13.92 69.8188 7.69039 72.8047 7.69039C73.7928 7.69039 74.4373 8.22743 74.4373 9.04373C74.4373 9.96743 73.578 10.9985 72.3536 11.5785L72.2247 11.3637C73.3847 10.8267 74.1365 9.90299 74.1365 9.04373C74.1365 8.3778 73.621 7.96965 72.8047 7.96965C70.0765 7.96965 65.8017 13.963 65.8017 16.9059C65.8017 17.7867 66.3173 18.3237 67.2839 18.3237C69.2602 18.3237 71.4084 16.4334 72.2247 13.8556H72.4825C71.5373 16.82 69.2602 18.603 67.2839 18.603ZM80.6624 18.603C79.7387 18.603 79.1157 17.9371 79.1157 16.9059C79.1157 13.92 83.4335 7.69039 86.4194 7.69039C87.3431 7.69039 87.9446 8.35632 87.9446 9.38743C87.9446 9.92447 87.8372 10.44 87.5364 11.2348L92.2839 2.19113H92.5416V2.29854L86.2476 14.1993C85.5601 15.5097 85.1735 16.6267 85.1735 17.4C85.1735 17.9585 85.4957 18.3237 85.9898 18.3237C87.0209 18.3237 88.7824 16.5837 91.5535 12.8889L91.9401 12.3734L92.1335 12.5237L91.7683 13.0178C88.9327 16.863 87.1283 18.603 85.9898 18.603C85.3024 18.603 84.8727 18.1304 84.8727 17.4C84.8727 16.6911 85.2164 15.6815 85.8609 14.4785H85.7964C84.2713 16.863 82.209 18.603 80.6624 18.603ZM80.6624 18.3237C83.3905 18.3237 87.6653 12.3304 87.6653 9.38743C87.6653 8.50669 87.1927 7.96965 86.4194 7.96965C83.6913 7.96965 79.4164 13.963 79.4164 16.9059C79.4164 17.7867 79.889 18.3237 80.6624 18.3237ZM91.996 18.603C90.879 18.603 90.2131 17.9371 90.2131 16.9059C90.2131 13.92 94.5308 7.69039 97.5168 7.69039C98.5049 7.69039 99.1494 8.22743 99.1494 9.04373C99.1494 11.1059 95.7768 13.1037 91.502 13.7052C90.8575 14.9726 90.5138 16.0897 90.5138 16.9059C90.5138 17.7867 91.0294 18.3237 91.996 18.3237C93.9723 18.3237 97.0442 16.3689 99.6649 12.8889L100.052 12.3734L100.245 12.5237L99.8797 13.0178C97.2805 16.5408 94.0368 18.603 91.996 18.603ZM91.6523 13.4045C95.7553 12.76 98.8486 10.8911 98.8486 9.04373C98.8486 8.39928 98.3546 7.96965 97.5168 7.96965C95.6694 7.96965 93.1131 10.7193 91.6523 13.4045ZM100.243 18.603C99.0834 18.603 98.2241 17.8297 98.2241 16.7556C98.2241 16.2615 98.5034 15.8963 98.8686 15.8963C99.1049 15.8963 99.2982 16.0897 99.2982 16.3689C99.2982 16.6482 99.1049 16.8415 98.8686 16.8415C98.7397 16.8415 98.5893 16.7771 98.5249 16.6697C98.5249 17.6793 99.2123 18.3237 100.243 18.3237C101.812 18.3237 103.036 16.5622 103.036 14.2852C103.036 12.6311 102.692 10.9985 102.563 9.43039C101.661 10.6548 100.609 12.0726 99.6634 13.2971L99.4701 13.1467C100.351 11.9652 101.726 10.1178 102.563 8.97928V8.52817C102.563 7.81928 102.843 7.30373 103.229 7.30373C103.487 7.30373 103.637 7.49706 103.637 7.77632C103.637 8.07706 103.423 8.39928 102.843 9.10817C102.907 10.8482 103.337 12.5452 103.337 14.2852C103.337 15.9822 102.606 17.4215 101.64 18.1304C102.542 17.7008 103.637 16.4763 106.301 12.8889L106.688 12.3734L106.881 12.5237L106.516 13.0178C102.714 18.1519 101.983 18.603 100.243 18.603ZM111.921 4.68299C111.727 4.68299 111.62 4.57558 111.62 4.40373C111.62 4.0815 111.899 3.75928 112.157 3.75928C112.35 3.75928 112.458 3.86669 112.458 4.03854C112.458 4.36076 112.178 4.68299 111.921 4.68299ZM107.001 18.603C106.314 18.603 105.884 18.1734 105.884 17.4859C105.884 16.7771 106.164 15.4452 109.364 9.32299H109.3L106.292 13.2971L106.099 13.1467L109.987 7.99113H110.288V8.09854C106.335 15.6385 106.185 16.863 106.185 17.4859C106.185 18.0015 106.507 18.3237 107.001 18.3237C108.032 18.3237 109.794 16.5837 112.565 12.8889L112.952 12.3734L113.145 12.5237L112.78 13.0178C109.944 16.863 108.14 18.603 107.001 18.603ZM110.911 23.9734C109.901 23.9734 109.192 23.2215 109.192 22.1474C109.192 20.8585 110.202 19.3548 111.792 18.2593C111.448 17.9585 111.233 17.5074 111.233 16.9059C111.233 13.92 115.551 7.69039 118.537 7.69039C119.46 7.69039 120.062 8.35632 120.062 9.38743C120.062 9.92447 119.955 10.44 119.654 11.2348L121.329 7.99113H121.587V8.09854L117.978 14.9726C117.377 16.1326 116.84 17.1422 116.367 18.023C118.193 17.6578 119.976 16.3045 123.069 12.1585L123.263 12.2874C120.105 16.6267 118.257 18.0015 116.195 18.3022C113.51 23.2 112.565 23.9734 110.911 23.9734ZM112.78 18.3237C115.508 18.3237 119.783 12.3304 119.783 9.38743C119.783 8.50669 119.31 7.96965 118.537 7.96965C115.809 7.96965 111.534 13.963 111.534 16.9059C111.534 17.7867 112.006 18.3237 112.78 18.3237ZM110.911 23.6941C112.737 23.6941 113.639 22.6845 117.957 14.4785H117.892C116.367 16.8845 114.326 18.603 112.78 18.603C112.479 18.603 112.221 18.5385 112.006 18.4097C110.374 19.6126 109.493 20.923 109.493 22.1689C109.493 23.0711 110.073 23.6941 110.911 23.6941ZM128.845 18.603C128.18 18.603 127.793 18.1948 127.793 17.4859C127.793 16.7341 128.351 15.4452 129.748 13.0178C131.187 10.5045 131.681 9.51632 131.681 8.91484C131.681 8.31336 131.337 7.96965 130.757 7.96965C129.168 7.96965 126.998 10.44 121.37 18.3022H121.026V18.1948L125.58 9.32299H125.516L122.508 13.2971L122.315 13.1467L126.203 7.99113H126.504V8.09854L121.95 16.9704H122.014C127.105 9.81706 129.082 7.69039 130.757 7.69039C131.509 7.69039 131.982 8.16299 131.982 8.91484C131.982 9.62373 131.402 10.6763 130.005 13.1467C128.588 15.66 128.094 16.82 128.094 17.4859C128.094 18.023 128.373 18.3237 128.845 18.3237C129.726 18.3237 131.123 17.1208 134.28 12.8889L134.667 12.3734L134.86 12.5237L134.495 13.0178C131.402 17.2067 129.877 18.603 128.845 18.603ZM134.728 18.603C133.611 18.603 132.945 17.9371 132.945 16.9059C132.945 13.92 137.263 7.69039 140.249 7.69039C141.237 7.69039 141.882 8.22743 141.882 9.04373C141.882 11.1059 138.509 13.1037 134.234 13.7052C133.59 14.9726 133.246 16.0897 133.246 16.9059C133.246 17.7867 133.762 18.3237 134.728 18.3237C136.705 18.3237 139.776 16.3689 142.397 12.8889L142.784 12.3734L142.977 12.5237L142.612 13.0178C140.013 16.5408 136.769 18.603 134.728 18.603ZM134.385 13.4045C138.488 12.76 141.581 10.8911 141.581 9.04373C141.581 8.39928 141.087 7.96965 140.249 7.96965C138.402 7.96965 135.845 10.7193 134.385 13.4045ZM140.913 18.3022V18.1948L145.467 9.32299H145.403L142.396 13.2971L142.202 13.1467L146.09 7.99113H146.391V8.09854L141.837 16.9704H141.902C146.993 9.81706 148.668 8.65706 150.451 7.99113H150.816C150.924 8.35632 150.967 8.74299 150.967 9.12965C150.967 11.1489 149.893 13.0178 148.067 14.2208L147.916 14.0274C149.678 12.803 150.666 11.0415 150.666 9.12965C150.666 8.82891 150.645 8.52817 150.58 8.22743C148.539 8.9578 146.713 10.7193 141.257 18.3022H140.913ZM143.344 25.2837L143.237 25.0045C151.679 21.0734 156.513 13.963 156.513 5.49928C156.513 3.60891 156.362 2.36299 155.89 0.0429863L156.169 2.25719e-05C156.599 1.74002 156.813 3.60891 156.813 5.49928C156.813 14.0489 151.83 21.3741 143.344 25.2837Z" fill="black"/>
</svg>
